<svg xmlns="http://www.w3.org/2000/svg" xmlns:xlink="http://www.w3.org/1999/xlink" width="1920" height="1292" viewBox="0 0 1920 1292">
  <defs>
    <style>
      .cls-1, .cls-14, .cls-3 {
        fill: none;
      }

      .cls-2 {
        clip-path: url(#clip-Web_1920_1);
      }

      .cls-16, .cls-4 {
        fill: #fafafa;
      }

      .cls-5 {
        fill: #04f;
      }

      .cls-5, .cls-6 {
        font-size: 40px;
      }

      .cls-13, .cls-5, .cls-6 {
        font-family: ArialRoundedMTBold, Arial Rounded MT;
      }

      .cls-13, .cls-6 {
        fill: #676767;
      }

      .cls-7 {
        fill: url(#linear-gradient);
      }

      .cls-8 {
        fill: #9e9e9e;
      }

      .cls-18, .cls-8 {
        font-size: 30px;
      }

      .cls-10, .cls-18, .cls-8, .cls-9 {
        font-family: ArialMT, Arial;
      }

      .cls-9 {
        fill: #878686;
      }

      .cls-10, .cls-11, .cls-12, .cls-9 {
        font-size: 25px;
      }

      .cls-11 {
        fill: red;
      }

      .cls-11, .cls-12 {
        font-family: Arial-BoldMT, Arial;
        font-weight: 700;
      }

      .cls-12 {
        fill: #00d90e;
      }

      .cls-13 {
        font-size: 35px;
      }

      .cls-14 {
        stroke: #4e7dff;
      }

      .cls-15 {
        clip-path: url(#clip-path);
      }

      .cls-16 {
        stroke: #f1f9ff;
        stroke-width: 2px;
      }

      .cls-17 {
        fill: #2699fb;
      }

      .cls-18, .cls-20 {
        fill: #4e7dff;
      }

      .cls-19, .cls-20 {
        stroke: none;
      }

      .cls-21 {
        fill: #fff;
      }

      .cls-22 {
        filter: url(#Line_10);
      }

      .cls-23 {
        filter: url(#Line_1);
      }
    </style>
    <linearGradient id="linear-gradient" x1="0.5" x2="0.5" y2="1" gradientUnits="objectBoundingBox">
      <stop offset="0" stop-color="#4eedff"/>
      <stop offset="1" stop-color="#fff"/>
    </linearGradient>
    <filter id="Line_1" x="-9" y="109.5" width="1927" height="19" filterUnits="userSpaceOnUse">
      <feOffset dy="3" input="SourceAlpha"/>
      <feGaussianBlur stdDeviation="3" result="blur"/>
      <feFlood flood-opacity="0.161"/>
      <feComposite operator="in" in2="blur"/>
      <feComposite in="SourceGraphic"/>
    </filter>
    <filter id="Line_10" x="2" y="1073.5" width="1927" height="19" filterUnits="userSpaceOnUse">
      <feOffset dy="3" input="SourceAlpha"/>
      <feGaussianBlur stdDeviation="3" result="blur-2"/>
      <feFlood flood-opacity="0.161"/>
      <feComposite operator="in" in2="blur-2"/>
      <feComposite in="SourceGraphic"/>
    </filter>
    <clipPath id="clip-path">
      <rect class="cls-1" width="50" height="50"/>
    </clipPath>
    <clipPath id="clip-Web_1920_1">
      <rect width="1920" height="1292"/>
    </clipPath>
  </defs>
  <g id="Web_1920_1" data-name="Web 1920 – 1" class="cls-2">
    <rect class="cls-21" width="1920" height="1292"/>
    <g id="Group_1" data-name="Group 1" transform="translate(0 -65)">
      <g id="Path_1" data-name="Path 1" class="cls-3" transform="translate(140 394)">
        <path class="cls-19" d="M40.732,0H1629.268C1651.764,0,1670,20.734,1670,46.311V518.688c0,25.577-18.236,46.312-40.732,46.312H40.732C18.236,565,0,544.266,0,518.688V46.311C0,20.734,18.236,0,40.732,0Z"/>
        <path class="cls-20" d="M 40.731689453125 1 C 35.3841552734375 1 30.19580078125 2.19122314453125 25.3104248046875 4.5406494140625 C 20.5816650390625 6.8145751953125 16.33251953125 10.07293701171875 12.6810302734375 14.22479248046875 C 9.02099609375 18.38580322265625 6.1468505859375 23.2337646484375 4.13818359375 28.633544921875 C 2.0557861328125 34.23126220703125 1 40.178955078125 1 46.31146240234375 L 1 518.6885375976563 C 1 524.821044921875 2.0557861328125 530.7687377929688 4.13818359375 536.366455078125 C 6.1468505859375 541.7662353515625 9.02099609375 546.6141357421875 12.6810302734375 550.7752075195313 C 16.33251953125 554.9270629882813 20.5816650390625 558.1854248046875 25.3104248046875 560.4593505859375 C 30.19580078125 562.8087768554688 35.3841552734375 564 40.731689453125 564 L 1629.268310546875 564 C 1634.615844726563 564 1639.80419921875 562.8087768554688 1644.689331054688 560.4593505859375 C 1649.418090820313 558.1854248046875 1653.667236328125 554.9270629882813 1657.318969726563 550.7752075195313 C 1660.978759765625 546.6141357421875 1663.853149414063 541.7662353515625 1665.86181640625 536.366455078125 C 1667.944213867188 530.7687377929688 1669 524.821044921875 1669 518.6885375976563 L 1669 46.31146240234375 C 1669 40.178955078125 1667.944213867188 34.23126220703125 1665.86181640625 28.633544921875 C 1663.853149414063 23.2337646484375 1660.978759765625 18.38580322265625 1657.318969726563 14.22479248046875 C 1653.667236328125 10.07293701171875 1649.418090820313 6.8145751953125 1644.689331054688 4.5406494140625 C 1639.80419921875 2.19122314453125 1634.615844726563 1 1629.268310546875 1 L 40.731689453125 1 M 40.731689453125 0 L 1629.268310546875 0 C 1651.763549804688 0 1670 20.734375 1670 46.31146240234375 L 1670 518.6885375976563 C 1670 544.265625 1651.763549804688 565 1629.268310546875 565 L 40.731689453125 565 C 18.2362060546875 565 0 544.265625 0 518.6885375976563 L 0 46.31146240234375 C 0 20.734375 18.2362060546875 0 40.731689453125 0 Z"/>
      </g>
    </g>
    <g id="Component_4_1" data-name="Component 4 – 1" transform="translate(405 356)">
      <rect id="Rectangle_1074" data-name="Rectangle 1074" class="cls-4" width="213" height="252" rx="36"/>
    </g>
    <rect id="Rectangle_1081" data-name="Rectangle 1081" class="cls-4" width="213" height="252" rx="36" transform="translate(405 616)"/>
    <rect id="Rectangle_1075" data-name="Rectangle 1075" class="cls-4" width="213" height="252" rx="36" transform="translate(637 348)"/>
    <rect id="Rectangle_1082" data-name="Rectangle 1082" class="cls-4" width="213" height="252" rx="36" transform="translate(637 616)"/>
    <rect id="Rectangle_1076" data-name="Rectangle 1076" class="cls-4" width="213" height="252" rx="36" transform="translate(870 356)"/>
    <rect id="Rectangle_1083" data-name="Rectangle 1083" class="cls-4" width="213" height="252" rx="36" transform="translate(869 616)"/>
    <rect id="Rectangle_1077" data-name="Rectangle 1077" class="cls-4" width="213" height="252" rx="36" transform="translate(1102 356)"/>
    <rect id="Rectangle_1084" data-name="Rectangle 1084" class="cls-4" width="213" height="252" rx="36" transform="translate(1101 616)"/>
    <rect id="Rectangle_1078" data-name="Rectangle 1078" class="cls-4" width="213" height="252" rx="36" transform="translate(1335 356)"/>
    <rect id="Rectangle_1085" data-name="Rectangle 1085" class="cls-4" width="213" height="252" rx="36" transform="translate(1333 616)"/>
    <rect id="Rectangle_1079" data-name="Rectangle 1079" class="cls-4" width="213" height="252" rx="36" transform="translate(1567 349)"/>
    <rect id="Rectangle_1086" data-name="Rectangle 1086" class="cls-4" width="213" height="252" rx="36" transform="translate(1565 616)"/>
    <text id="AUDITORIUM" class="cls-5" transform="translate(137 75)"><tspan x="0" y="0">AUDITORIUM</tspan></text>
    <text id="SCHEDULE" class="cls-6" transform="translate(140 305)"><tspan x="0" y="0">SCHEDULE</tspan></text>
    <g id="Component_3_1" data-name="Component 3 – 1" transform="translate(173 355)">
      <rect id="Rectangle_1073" data-name="Rectangle 1073" class="cls-7" width="213" height="252" rx="36"/>
    </g>
    <rect id="Rectangle_1080" data-name="Rectangle 1080" class="cls-4" width="213" height="252" rx="36" transform="translate(173 616)"/>
    <text id="dd_mm_yy" data-name="dd/mm/yy" class="cls-8" transform="translate(1584 299)"><tspan x="0" y="0">dd/mm/yy</tspan></text>
    <text id="_8:00_-_9:00" data-name="8:00 - 9:00" class="cls-9" transform="translate(220 404)"><tspan x="0" y="0">8:00 - 9:00</tspan></text>
    <text id="group_name" data-name="group name" class="cls-10" transform="translate(213 443)"><tspan x="0" y="0">group name</tspan></text>
    <text id="BOOKED" class="cls-11" transform="translate(225 578)"><tspan x="0" y="0">BOOKED</tspan></text>
    <text id="AVAILABLE" class="cls-12" transform="translate(442 578)"><tspan x="0" y="0">AVAILABLE</tspan></text>
    <text id="_15:00_-_16:00" data-name="15:00 - 16:00" class="cls-9" transform="translate(206 665)"><tspan x="0" y="0">15:00 - 16:00</tspan></text>
    <text id="_16:00_-_17:00" data-name="16:00 - 17:00" class="cls-9" transform="translate(438 665)"><tspan x="0" y="0">16:00 - 17:00</tspan></text>
    <text id="_17:00_-_18:00" data-name="17:00 - 18:00" class="cls-9" transform="translate(670 665)"><tspan x="0" y="0">17:00 - 18:00</tspan></text>
    <text id="_18:00_-_19:00" data-name="18:00 - 19:00" class="cls-9" transform="translate(902 665)"><tspan x="0" y="0">18:00 - 19:00</tspan></text>
    <text id="_19:00_-_20:00" data-name="19:00 - 20:00" class="cls-9" transform="translate(1134 667)"><tspan x="0" y="0">19:00 - 20:00</tspan></text>
    <text id="_20:00_-_21:00" data-name="20:00 - 21:00" class="cls-9" transform="translate(1366 667)"><tspan x="0" y="0">20:00 - 21:00</tspan></text>
    <text id="_21:00_-_22:00" data-name="21:00 - 22:00" class="cls-9" transform="translate(1598 667)"><tspan x="0" y="0">21:00 - 22:00</tspan></text>
    <text id="_9:00_-_10:00" data-name="9:00 - 10:00" class="cls-9" transform="translate(445 404)"><tspan x="0" y="0">9:00 - 10:00</tspan></text>
    <text id="_10:00_-_11:00" data-name="10:00 - 11:00" class="cls-9" transform="translate(671 399)"><tspan x="0" y="0">10:00 - 11:00</tspan></text>
    <text id="_11:00_-_12:00" data-name="11:00 - 12:00" class="cls-9" transform="translate(904 399)"><tspan x="0" y="0">11:00 - 12:00</tspan></text>
    <text id="_12:00_-_13:00" data-name="12:00 - 13:00" class="cls-9" transform="translate(1135 399)"><tspan x="0" y="0">12:00 - 13:00</tspan></text>
    <text id="_13:00_-_14:00" data-name="13:00 - 14:00" class="cls-9" transform="translate(1368 399)"><tspan x="0" y="0">13:00 - 14:00</tspan></text>
    <text id="_14:00_-_15:00" data-name="14:00 - 15:00" class="cls-9" transform="translate(1600 399)"><tspan x="0" y="0">14:00 - 15:00</tspan></text>
    <text id="BOOK" class="cls-13" transform="translate(1413 81)"><tspan x="0" y="0">BOOK</tspan></text>
    <text id="ACCOUNT" class="cls-13" transform="translate(1600 81)"><tspan x="0" y="0">ACCOUNT</tspan></text>
    <g class="cls-23" transform="matrix(1, 0, 0, 1, 0, 0)">
      <line id="Line_1-2" data-name="Line 1" class="cls-14" x2="1909" transform="translate(0 116)"/>
    </g>
    <g class="cls-22" transform="matrix(1, 0, 0, 1, 0, 0)">
      <line id="Line_10-2" data-name="Line 10" class="cls-14" x2="1909" transform="translate(11 1080)"/>
    </g>
    <g id="Backward_Arrow" data-name="Backward Arrow" class="cls-15" transform="translate(1517 263)">
      <g id="Rectangle_1067" data-name="Rectangle 1067" class="cls-16">
        <rect class="cls-19" width="50" height="50" rx="10"/>
        <rect class="cls-1" x="1" y="1" width="48" height="48" rx="9"/>
      </g>
      <g id="Symbol_83" data-name="Symbol 83" transform="translate(1288 540) rotate(180)">
        <path id="Path_10" data-name="Path 10" class="cls-17" d="M8,0,6.545,1.455l5.506,5.506H0V9.039H12.052L6.545,14.545,8,16l8-8Z" transform="translate(1254 507)"/>
      </g>
    </g>
    <g id="Forward_Arrow" data-name="Forward Arrow" class="cls-15" transform="translate(1735 263)">
      <g id="Rectangle_1066" data-name="Rectangle 1066" class="cls-16">
        <rect class="cls-19" width="50" height="50" rx="10"/>
        <rect class="cls-1" x="1" y="1" width="48" height="48" rx="9"/>
      </g>
      <g id="Symbol_82" data-name="Symbol 82" transform="translate(-1236 -490)">
        <path id="Path_10-2" data-name="Path 10" class="cls-17" d="M8,0,6.545,1.455l5.506,5.506H0V9.039H12.052L6.545,14.545,8,16l8-8Z" transform="translate(1254 507)"/>
      </g>
    </g>
    <text id="admin_email" data-name="admin email" class="cls-8" transform="translate(140 1248)"><tspan x="0" y="0">admin email</tspan></text>
    <text id="management_email" data-name="management email" class="cls-8" transform="translate(140 1199)"><tspan x="0" y="0">management email</tspan></text>
    <text id="Contact_Us" data-name="Contact Us" class="cls-18" transform="translate(140 1150)"><tspan x="0" y="0">Contact Us</tspan></text>
  </g>
</svg>
